# xmcd
#
# Track frame offsets:
#	150
#	21505
#	42784
#	62310
#	85000
#	107495
#	122103
#	149103
#	174886
#	186945
#	213348
#	227895
#
# Disc length: 3265 seconds
#
# Revision: 0
# Processed by: cddbd v1.5.2PL0 Copyright (c) Steve Scherf et al.
# Submitted via: EasyCDDAExtractor 12.0.1.1
#
DISCID=a10cbf0c
DTITLE=The Forever Fabulous Chickenhawks with Big Luther Kent - Live from The 
DTITLE=Gypsy Tea Room
DYEAR=2002
DGENRE=Blues
TTITLE0=Flip, Flop and Fly
TTITLE1=Crosscut Saw
TTITLE2=I Got News for You
TTITLE3=Saturday Night Fish Fry
TTITLE4=Pocky Way
TTITLE5=Turn On Your Lovelight
TTITLE6=Dangerous Mood
TTITLE7=If You Don't Know Me By Now
TTITLE8=Tell Mama
TTITLE9=I'll Take You Back
TTITLE10=Ain't No Sunshine (When She's Gone)
TTITLE11=The Well and the Water
EXTD=
EXTT0=
EXTT1=
EXTT2=
EXTT3=
EXTT4=
EXTT5=
EXTT6=
EXTT7=
EXTT8=
EXTT9=
EXTT10=
EXTT11=
PLAYORDER=
